<?xml version="1.0" standalone="no"?>
<!DOCTYPE svg PUBLIC "-//W3C//DTD SVG 20010904//EN"
 "http://www.w3.org/TR/2001/REC-SVG-20010904/DTD/svg10.dtd">
<svg version="1.0" xmlns="http://www.w3.org/2000/svg"
 width="325.000000pt" height="285.000000pt" viewBox="0 0 325.000000 285.000000"
 preserveAspectRatio="xMidYMid meet">

<g transform="translate(0.000000,285.000000) scale(0.100000,-0.100000)"
fill="#000000" stroke="none">
<path d="M2320 2601 c0 -61 -3 -80 -15 -85 -8 -3 -15 -14 -15 -23 0 -19 -29
-49 -67 -69 -35 -19 -94 -25 -148 -15 -84 16 -149 32 -170 41 -31 13 -201 56
-285 71 -69 13 -178 5 -238 -17 -26 -10 -49 -21 -52 -25 -3 -3 -14 -9 -25 -13
-24 -7 -83 -61 -110 -101 -70 -103 -95 -261 -58 -366 10 -27 21 -49 25 -49 5
0 8 -6 8 -14 0 -20 45 -64 74 -72 15 -3 29 -10 32 -15 7 -12 144 -11 144 1 0
6 7 10 16 10 9 0 32 10 52 22 45 28 142 126 142 144 0 8 3 14 8 14 12 0 57 93
81 169 16 49 -3 60 -23 14 -35 -78 -51 -108 -58 -111 -5 -2 -8 -8 -8 -13 0
-23 -131 -169 -151 -169 -4 0 -14 -6 -21 -13 -33 -32 -149 -59 -163 -38 -3 5
-18 12 -34 16 -41 9 -81 88 -81 160 0 30 5 57 10 60 6 3 10 16 10 27 0 18 37
105 50 118 3 3 16 21 29 40 22 33 82 80 102 80 5 0 9 4 9 9 0 12 113 35 170
34 58 0 200 -21 221 -32 9 -5 42 -12 75 -16 32 -4 64 -12 71 -17 6 -5 58 -12
115 -15 93 -5 108 -3 152 16 51 24 96 65 96 87 0 8 4 14 9 14 5 0 12 10 14 23
2 12 5 -83 6 -210 1 -148 5 -233 11 -233 6 0 10 78 10 215 l0 215 225 0 c252
0 241 -4 208 72 -11 24 -26 41 -40 44 -13 4 -23 10 -23 15 0 5 -83 9 -185 9
l-185 0 0 35 c0 19 -4 35 -10 35 -6 0 -10 -33 -10 -79z"/>
<path d="M725 2601 c-3 -5 -19 -12 -35 -16 -17 -4 -30 -10 -30 -15 0 -5 -10
-12 -22 -15 -44 -15 -104 -97 -131 -182 -18 -55 -23 -168 -8 -177 4 -3 11 -24
15 -46 3 -22 10 -40 14 -40 4 0 13 -13 20 -30 8 -16 57 -74 110 -129 53 -54
108 -113 122 -131 43 -56 87 -144 104 -209 17 -67 22 -216 7 -225 -5 -3 -12
-26 -15 -51 -4 -25 -11 -45 -16 -45 -4 0 -11 -11 -14 -24 -13 -52 -180 -194
-249 -211 -15 -4 -27 -11 -27 -15 0 -20 -251 -49 -273 -32 -7 5 -27 13 -44 17
-40 8 -114 77 -138 129 -24 50 -24 197 -1 241 9 17 16 36 16 43 0 6 4 12 9 12
5 0 12 11 15 25 4 14 11 25 16 25 6 0 10 5 10 12 0 18 99 107 126 114 13 3 24
10 24 14 0 5 18 11 40 15 22 4 42 11 46 16 7 12 164 12 164 -1 0 -5 10 -10 22
-10 31 0 87 -41 94 -67 8 -30 24 -29 24 0 0 25 -57 97 -77 97 -6 0 -13 6 -15
13 -4 9 -36 12 -119 12 -117 0 -123 -1 -228 -53 -75 -37 -221 -205 -221 -255
0 -8 -6 -17 -12 -19 -19 -7 -18 -226 2 -264 20 -41 100 -120 130 -129 14 -4
28 -13 32 -19 10 -16 310 -15 329 1 8 6 31 14 52 18 20 4 37 11 37 15 0 5 14
11 30 15 17 4 30 11 30 16 0 5 5 9 10 9 30 0 192 149 204 188 4 12 11 22 16
22 5 0 11 14 15 30 4 16 10 30 14 30 8 0 25 60 42 145 10 51 3 192 -11 210 -4
6 -10 24 -14 40 -17 73 -81 161 -202 284 -68 68 -126 132 -129 142 -4 11 -10
19 -15 19 -5 0 -11 13 -15 30 -4 16 -11 32 -16 35 -12 8 -12 142 0 150 5 3 12
19 16 35 4 17 10 30 14 30 4 0 14 11 21 25 20 38 108 93 161 100 89 13 189
-40 201 -107 4 -23 2 -25 -16 -18 -31 11 -75 -8 -82 -37 -10 -37 1 -110 19
-127 61 -61 129 49 112 181 -6 46 -13 61 -46 94 -21 21 -48 39 -58 39 -11 0
-23 5 -26 10 -8 13 -172 13 -180 1z"/>
<path d="M3160 2450 c0 -5 5 -10 10 -10 6 0 10 5 10 10 0 6 -4 10 -10 10 -5 0
-10 -4 -10 -10z"/>
<path d="M1924 2296 c-43 -24 -119 -110 -146 -166 -7 -14 -15 -27 -18 -30 -4
-3 -17 -34 -30 -70 -13 -36 -27 -69 -31 -75 -4 -5 -10 -27 -14 -48 -4 -20 -11
-39 -15 -42 -5 -3 -11 -23 -15 -44 -4 -22 -13 -45 -21 -51 -7 -7 -51 -16 -96
-21 -46 -6 -92 -14 -103 -19 -11 -5 -31 -12 -45 -16 -27 -7 -87 -48 -108 -74
-26 -31 -42 -84 -42 -136 0 -29 4 -55 9 -59 5 -3 12 -19 16 -35 4 -17 10 -30
15 -30 5 0 12 -9 15 -20 3 -11 11 -20 16 -20 14 0 11 26 -6 40 -20 17 -29 90
-15 139 11 43 66 111 89 111 6 0 11 4 11 9 0 5 14 12 30 16 17 4 30 10 30 15
0 4 17 11 38 15 20 4 42 10 47 15 10 7 85 21 85 16 0 -2 -7 -17 -15 -32 -8
-16 -15 -37 -15 -46 0 -9 -4 -20 -10 -23 -5 -3 -10 -13 -10 -21 0 -13 -11 -41
-50 -129 -37 -84 -50 -115 -50 -124 0 -6 -4 -11 -9 -11 -5 0 -12 -12 -15 -26
-4 -15 -12 -32 -19 -40 -25 -28 -35 -41 -46 -62 -6 -12 -31 -35 -55 -52 -55
-37 -124 -42 -156 -10 -27 27 -26 28 16 27 56 -2 90 56 77 128 -7 32 -37 65
-61 65 -28 0 -80 -68 -87 -114 -10 -66 21 -150 60 -162 11 -4 23 -12 27 -18
10 -15 151 -12 156 3 2 6 9 11 16 11 31 0 113 83 156 159 8 14 18 28 21 31 3
3 23 41 43 85 21 44 41 88 47 97 5 10 9 23 9 30 0 7 6 25 14 40 8 15 17 42 21
60 4 18 11 38 15 43 4 6 11 29 15 52 8 49 17 58 68 66 l37 6 -6 -42 c-3 -23
-7 -56 -10 -73 -2 -17 -2 -39 2 -48 12 -31 24 -16 24 32 0 26 3 64 7 86 5 35
11 41 58 62 67 29 97 66 93 113 -6 67 -61 50 -134 -41 -6 -8 -15 -24 -18 -36
-6 -18 -15 -22 -48 -22 -39 0 -40 1 -35 28 13 66 29 129 37 147 5 11 12 35 15
53 4 18 13 45 21 60 8 15 14 35 14 45 0 9 4 17 9 17 5 0 12 14 16 30 4 17 11
30 16 30 5 0 9 5 9 11 0 7 16 28 36 47 27 26 47 36 80 40 24 2 44 9 44 13 0
13 -101 9 -126 -5z"/>
<path d="M2320 1471 c0 -367 3 -561 10 -561 6 0 10 92 10 255 l0 255 23 2 c12
0 28 1 35 1 6 -1 12 3 12 8 0 5 11 9 24 9 32 0 119 70 151 120 51 81 57 212
14 295 -42 80 -130 146 -212 160 -21 3 -45 9 -53 12 -12 4 -14 -74 -14 -556z
m174 438 c53 -42 21 -133 -49 -133 -43 0 -75 31 -75 73 0 70 69 104 124 60z"/>
<path d="M3018 1209 c-126 -125 -228 -230 -228 -233 0 -3 76 -6 169 -6 185 0
201 4 251 60 37 41 42 76 38 261 l-3 146 -227 -228z"/>
<path d="M60 866 c7 -10 12 -46 12 -96 0 -71 2 -80 18 -80 14 0 20 9 22 38 l3
37 53 3 c70 4 67 22 -4 22 l-55 0 3 33 c3 31 4 32 56 35 31 2 52 -1 52 -7 0
-6 7 -11 16 -11 9 0 14 7 12 18 -3 15 -17 17 -102 20 -88 2 -98 1 -86 -12z"/>
<path d="M425 873 c-47 -7 -109 -54 -113 -86 -8 -66 101 -115 215 -97 85 14
124 55 109 114 -12 47 -118 82 -211 69z m155 -42 c48 -35 39 -89 -18 -114
-123 -54 -278 27 -200 105 41 41 167 46 218 9z"/>
<path d="M701 866 c-17 -20 6 -33 25 -14 9 8 28 12 54 10 l39 -4 3 -84 c2 -47
7 -84 13 -84 6 0 12 39 15 87 l5 88 40 -3 c22 -2 42 -8 43 -13 7 -17 34 -9 30
9 -3 15 -18 17 -129 20 -100 2 -129 0 -138 -12z"/>
<path d="M1145 873 c-47 -7 -109 -54 -113 -86 -8 -66 101 -115 215 -97 85 14
124 55 109 114 -12 47 -118 82 -211 69z m155 -42 c48 -35 39 -89 -18 -114
-123 -54 -278 27 -200 105 41 41 167 46 218 9z"/>
<path d="M1545 872 c-97 -22 -135 -89 -82 -146 29 -31 114 -47 189 -35 31 5
56 5 63 -1 16 -13 25 -2 25 32 0 32 -20 58 -44 58 -20 0 -21 -16 -1 -24 23 -9
18 -30 -12 -43 -32 -15 -153 -17 -153 -3 0 6 -6 10 -14 10 -24 0 -46 29 -46
60 0 57 94 93 190 71 46 -10 61 -7 44 8 -12 12 -122 21 -159 13z"/>
<path d="M1822 867 c13 -10 18 -33 20 -95 3 -84 21 -117 26 -49 3 37 4 37 47
37 33 0 50 -6 65 -22 11 -12 20 -26 20 -30 0 -15 52 -30 64 -18 7 7 6 10 -3
10 -15 0 -71 54 -71 68 0 5 11 13 25 16 18 5 25 13 25 32 0 46 -22 57 -133 61
-88 4 -100 2 -85 -10z m177 -22 c6 -3 11 -17 11 -29 0 -27 -21 -36 -92 -36
l-48 0 0 38 c0 21 2 41 5 44 6 6 110 -8 124 -17z"/>
<path d="M2226 824 c-20 -31 -36 -60 -36 -65 0 -5 -4 -9 -9 -9 -5 0 -12 -11
-15 -25 -4 -14 -13 -25 -21 -25 -8 0 -15 -4 -15 -10 0 -5 3 -10 6 -10 13 0 50
25 65 44 31 40 169 22 169 -22 0 -13 38 -23 45 -12 3 5 1 10 -3 12 -12 4 -72
95 -72 107 0 6 -4 11 -9 11 -5 0 -13 10 -17 23 -7 23 -22 37 -40 37 -6 0 -28
-25 -48 -56z m77 -13 c14 -21 23 -42 20 -45 -4 -3 -26 -6 -50 -6 -32 0 -43 4
-43 15 0 8 4 15 9 15 5 0 12 14 16 30 4 17 10 30 14 30 5 0 20 -18 34 -39z"/>
<path d="M2490 866 c7 -10 12 -46 12 -96 0 -71 2 -80 18 -80 14 0 20 9 22 38
l3 37 53 3 c70 4 67 22 -4 22 l-55 0 3 33 c3 31 4 32 56 35 31 2 52 -1 52 -7
0 -6 7 -11 16 -11 9 0 14 7 12 18 -3 15 -17 17 -102 20 -88 2 -98 1 -86 -12z"/>
<path d="M2760 871 c0 -6 5 -13 10 -16 6 -3 10 -40 10 -81 0 -43 -4 -74 -10
-74 -5 0 -10 -4 -10 -9 0 -6 17 -8 38 -6 50 4 50 4 30 16 -25 14 -26 134 -1
161 15 17 14 18 -25 18 -23 0 -42 -4 -42 -9z"/>
<path d="M3006 824 c-20 -31 -36 -60 -36 -65 0 -5 -4 -9 -9 -9 -5 0 -12 -11
-15 -25 -4 -14 -13 -25 -21 -25 -8 0 -15 -4 -15 -10 0 -5 3 -10 6 -10 13 0 50
25 65 44 31 40 169 22 169 -22 0 -13 38 -23 45 -12 3 5 1 10 -3 12 -12 4 -72
95 -72 107 0 6 -4 11 -9 11 -5 0 -13 10 -17 23 -7 23 -22 37 -40 37 -6 0 -28
-25 -48 -56z m73 -8 c30 -48 27 -56 -24 -56 -33 0 -45 4 -45 15 0 8 4 15 9 15
5 0 12 14 16 30 8 39 19 38 44 -4z"/>
</g>
</svg>
